<svg width="24" height="24" viewBox="0 0 24 24" fill="none" xmlns="http://www.w3.org/2000/svg">
<path d="M3 20H4M21 20H20M20 20V12C20 10.8954 19.1046 10 18 10V10M20 20H16M12 20V12C12 10.8954 12.8954 10 14 10H18M12 20H16M12 20H4M16 20V17M4 20V6C4 4.89543 4.89543 4 6 4H16C17.1046 4 18 4.89543 18 6V10" stroke="#0A7356" stroke-width="2" stroke-linecap="round" stroke-linejoin="round"/>
<path d="M8.001 8H8" stroke="#0A7356" stroke-width="2" stroke-linecap="round" stroke-linejoin="round"/>
<path d="M16.001 14H16" stroke="#0A7356" stroke-width="2" stroke-linecap="round" stroke-linejoin="round"/>
<path d="M8.001 12H8" stroke="#0A7356" stroke-width="2" stroke-linecap="round" stroke-linejoin="round"/>
<path d="M8.001 16H8" stroke="#0A7356" stroke-width="2" stroke-linecap="round" stroke-linejoin="round"/>
</svg>
