<svg width="40" height="40" viewBox="0 0 40 40" fill="none" xmlns="http://www.w3.org/2000/svg">
<circle cx="20" cy="20" r="20" fill="#F3F3F3"/>
<g clip-path="url(#clip0_50_1894)">
<path d="M11 28C11 27.4477 11.4477 27 12 27H28C28.5523 27 29 27.4477 29 28C29 28.5523 28.5523 29 28 29H12C11.4477 29 11 28.5523 11 28ZM21 21.172L26.364 15.8071C26.7545 15.4166 27.3876 15.4166 27.778 15.807C28.1685 16.1975 28.1685 16.8305 27.7781 17.221L20.7071 24.2928C20.3166 24.6834 19.6834 24.6834 19.2929 24.2929L12.222 17.222C11.8315 16.8315 11.8314 16.1984 12.2218 15.8077C12.6123 15.4169 13.2458 15.4168 13.6365 15.8074L19 21.17V11C19 10.4477 19.4477 10 20 10C20.5523 10 21 10.4477 21 11V21.172Z" fill="#0A7356"/>
</g>
<defs>
<clipPath id="clip0_50_1894">
<rect width="24" height="24" fill="white" transform="translate(8 8)"/>
</clipPath>
</defs>
</svg>
