<svg width="40" height="40" viewBox="0 0 40 40" fill="none" xmlns="http://www.w3.org/2000/svg">
<circle cx="20" cy="20" r="20" fill="#F3F3F3"/>
<g clip-path="url(#clip0_50_1875)">
<path d="M20 28C22.1217 28 24.1566 27.1571 25.6569 25.6569C27.1571 24.1566 28 22.1217 28 20C28 17.8783 27.1571 15.8434 25.6569 14.3431C24.1566 12.8429 22.1217 12 20 12C17.8783 12 15.8434 12.8429 14.3431 14.3431C12.8429 15.8434 12 17.8783 12 20C12 22.1217 12.8429 24.1566 14.3431 25.6569C15.8434 27.1571 17.8783 28 20 28ZM20 30C14.477 30 10 25.523 10 20C10 14.477 14.477 10 20 10C25.523 10 30 14.477 30 20C30 25.523 25.523 30 20 30ZM16.89 21.17L14.392 20.391C13.852 20.226 13.849 19.854 14.513 19.587L24.246 15.827C24.811 15.597 25.131 15.888 24.948 16.617L23.291 24.437C23.175 24.994 22.84 25.127 22.375 24.87L19.824 22.982L18.635 24.13C18.513 24.248 18.414 24.349 18.226 24.374C18.039 24.4 17.885 24.344 17.772 24.034L16.902 21.163L16.89 21.171V21.17Z" fill="#0A7356"/>
</g>
<defs>
<clipPath id="clip0_50_1875">
<rect width="24" height="24" fill="white" transform="translate(8 8)"/>
</clipPath>
</defs>
</svg>
